# Left white line (near outer edge, shift +3.8 from center radius 36 => 39.8)
mtllib road_curve.mtl
o left_line
vn 0 0 1
# Inner (r=39.7)
v 39.7000 0.0000 0.011
v 39.4590 4.1600 0.011
v 38.7291 8.2577 0.011
v 37.5204 12.2228 0.011
v 35.8507 15.9895 0.011
v 33.7452 19.4977 0.011
v 31.2355 22.6941 0.011
v 28.3593 25.5335 0.011
v 25.1607 27.9798 0.011
v 21.6886 29.9989 0.011
v 17.9969 31.5670 0.011
v 14.1437 32.6620 0.011
v 10.1904 33.2735 0.011
v 6.2019 33.3929 0.011
v 2.2448 33.0137 0.011
v -1.6293 32.1314 0.011
# Outer (r=39.9)
v 39.9000 0.0000 0.011
v 39.6581 4.1804 0.011
v 38.9240 8.2995 0.011
v 37.7085 12.2844 0.011
v 36.0292 16.0705 0.011
v 33.9092 19.5999 0.011
v 31.3782 22.8233 0.011
v 28.4718 25.7005 0.011
v 25.2318 28.2017 0.011
v 21.7034 30.3012 0.011
v 17.9356 31.9848 0.011
v 13.9791 33.2412 0.011
v 9.8866 34.0715 0.011
v 5.7122 34.4783 0.011
v 1.5100 34.4669 0.011
v -2.7080 34.0444 0.011
usemtl line_white
# Triangles
f 1//1 17//1 18//1
f 1//1 18//1 2//1
f 2//1 18//1 19//1
f 2//1 19//1 3//1
f 3//1 19//1 20//1
f 3//1 20//1 4//1
f 4//1 20//1 21//1
f 4//1 21//1 5//1
f 5//1 21//1 22//1
f 5//1 22//1 6//1
f 6//1 22//1 23//1
f 6//1 23//1 7//1
f 7//1 23//1 24//1
f 7//1 24//1 8//1
f 8//1 24//1 25//1
f 8//1 25//1 9//1
f 9//1 25//1 26//1
f 9//1 26//1 10//1
f 10//1 26//1 27//1
f 10//1 27//1 11//1
f 11//1 27//1 28//1
f 11//1 28//1 12//1
f 12//1 28//1 29//1
f 12//1 29//1 13//1
f 13//1 29//1 30//1
f 13//1 30//1 14//1
f 14//1 30//1 31//1
f 14//1 31//1 15//1
f 15//1 31//1 32//1
f 15//1 32//1 16//1
