# Smooth quarter-circle road mesh (outer radius ~40, width 8)
mtllib road_curve.mtl
o road_curve

# Inner ring (radius ~32)
v 32.000 0.000 0.0
v 31.392 3.351 0.0
v 29.600 6.400 0.0
v 26.769 9.142 0.0
v 23.200 11.314 0.0
v 19.200 12.800 0.0
v 14.851 13.568 0.0
v 10.286 13.600 0.0
v 5.657 12.728 0.0
v 2.828 11.314 0.0
v 0.000 8.000 0.0
# Outer ring (radius ~40)
v 40.000 0.000 0.0
v 39.240 4.191 0.0
v 37.000 8.000 0.0
v 33.461 11.428 0.0
v 29.000 14.142 0.0
v 24.000 16.000 0.0
v 18.564 16.960 0.0
v 12.857 17.000 0.0
v 7.071 15.556 0.0
v 3.536 14.142 0.0
v 0.000 10.000 0.0

# Single normal (flat plane)
vn 0 0 1
usemtl asphalt

# Triangulated strip (inner i, outer i+11)
f 1//1 12//1 13//1
f 1//1 13//1 2//1
f 2//1 13//1 14//1
f 2//1 14//1 3//1
f 3//1 14//1 15//1
f 3//1 15//1 4//1
f 4//1 15//1 16//1
f 4//1 16//1 5//1
f 5//1 16//1 17//1
f 5//1 17//1 6//1
f 6//1 17//1 18//1
f 6//1 18//1 7//1
f 7//1 18//1 19//1
f 7//1 19//1 8//1
f 8//1 19//1 20//1
f 8//1 20//1 9//1
f 9//1 20//1 21//1
f 9//1 21//1 10//1
f 10//1 21//1 22//1
f 10//1 22//1 11//1
