# Quarter circle road body (inner radius 32, outer 40, 0..90 deg)
mtllib road_curve.mtl
o road_curve_body
vn 0 0 1
# Generate rings every 6 degrees (16 segments)
# Inner ring vertices (r=32)
v 32.0000 0.0000 0
v 31.8090 3.3510 0
v 31.2349 6.6523 0
v 30.2869 9.8558 0
v 28.9799 12.9155 0
v 27.3350 15.7880 0
v 25.3799 18.4336 0
v 23.1485 20.8167 0
v 20.6803 22.9069 0
v 18.0190 24.6796 0
v 15.2125 26.1155 0
v 12.3117 27.2000 0
v 9.3691 27.9246 0
v 6.4385 28.2850 0
v 3.5731 28.2810 0
v 0.8268 27.9158 0
# Outer ring vertices (r=40)
v 40.0000 0.0000 0
v 39.7613 4.1887 0
v 39.0436 8.3153 0
v 37.8573 12.3185 0
v 36.2198 16.1381 0
v 34.1557 19.7162 0
v 31.6962 22.9970 0
v 28.8790 25.9284 0
v 25.7489 28.4623 0
v 22.3573 30.5569 0
v 18.7610 32.1769 0
v 15.0209 33.2950 0
v 11.2014 33.8921 0
v 7.3693 33.9570 0
v 3.5920 33.4863 0
v -0.0698 32.4848 0
usemtl asphalt
# Triangles (inner i, outer i+16)
# 16 segments => 15 quads => 30 triangles
f 1//1 17//1 18//1
f 1//1 18//1 2//1
f 2//1 18//1 19//1
f 2//1 19//1 3//1
f 3//1 19//1 20//1
f 3//1 20//1 4//1
f 4//1 20//1 21//1
f 4//1 21//1 5//1
f 5//1 21//1 22//1
f 5//1 22//1 6//1
f 6//1 22//1 23//1
f 6//1 23//1 7//1
f 7//1 23//1 24//1
f 7//1 24//1 8//1
f 8//1 24//1 25//1
f 8//1 25//1 9//1
f 9//1 25//1 26//1
f 9//1 26//1 10//1
f 10//1 26//1 27//1
f 10//1 27//1 11//1
f 11//1 27//1 28//1
f 11//1 28//1 12//1
f 12//1 28//1 29//1
f 12//1 29//1 13//1
f 13//1 29//1 30//1
f 13//1 30//1 14//1
f 14//1 30//1 31//1
f 14//1 31//1 15//1
f 15//1 31//1 32//1
f 15//1 32//1 16//1
